<svg viewBox="0 0 100 100" xmlns="http://www.w3.org/2000/svg" style="height: 100%; width: 100%; background: none; shape-rendering: auto;" width="300px" height="300px"><g class="ldl-scale" style="transform-origin: 50% 50%; transform: rotate(0deg) scale(0.8, 0.8);"><g class="ldl-ani" style="transform-origin: 50px 50px;"><g class="ldl-layer"><g class="ldl-ani" style="transform-origin: 50px 50px; transform: scale(0.91); animation: 1.11111s linear -0.694444s infinite normal forwards running breath-cf3e196f-8d1c-4fbb-bf05-2e98009805a9;"><path fill="#abbd81" d="M58.904 70c0 4.399-3.206 8.063-7.404 8.778V88.5h27.328c5.333 0 9.672-4.339 9.672-9.672V51.5H75.904V50c0-3.256-2.648-5.905-5.904-5.905S64.096 46.744 64.096 50v1.5H51.5v9.722c4.198.715 7.404 4.379 7.404 8.778z" style="fill: rgb(65, 84, 241);"></path></g></g><g class="ldl-layer"><g class="ldl-ani" style="transform-origin: 50px 50px; transform: scale(0.91); animation: 1.11111s linear -0.833333s infinite normal forwards running breath-cf3e196f-8d1c-4fbb-bf05-2e98009805a9;"><path fill="#e15b64" d="M70 41.095c4.398 0 8.063 3.206 8.778 7.405H88.5V21.172c0-5.333-4.339-9.672-9.672-9.672H51.5v12.595H50c-3.256 0-5.904 2.649-5.904 5.905s2.648 5.905 5.904 5.905h1.5V48.5h9.722c.716-4.199 4.38-7.405 8.778-7.405z" style="fill: rgba(65, 84, 241, 0.5);"></path></g></g><g class="ldl-layer"><g class="ldl-ani" style="transform-origin: 50px 50px; transform: scale(0.91); animation: 1.11111s linear -0.972222s infinite normal forwards running breath-cf3e196f-8d1c-4fbb-bf05-2e98009805a9;"><path fill="#77a4bd" d="M41.096 30c0-4.399 3.206-8.063 7.404-8.778V11.5H21.172c-5.333 0-9.672 4.339-9.672 9.672V48.5h12.596V50c0 3.256 2.648 5.905 5.904 5.905s5.904-2.649 5.904-5.905v-1.5H48.5v-9.722c-4.198-.715-7.404-4.379-7.404-8.778z" style="fill: rgb(65, 84, 241);"></path></g></g><g class="ldl-layer"><g class="ldl-ani" style="transform-origin: 50px 50px; transform: scale(0.91); animation: 1.11111s linear -1.11111s infinite normal forwards running breath-cf3e196f-8d1c-4fbb-bf05-2e98009805a9;"><path fill="#f8b26a" d="M30 58.905c-4.398 0-8.063-3.206-8.778-7.405H11.5v27.328c0 5.333 4.339 9.672 9.672 9.672H48.5V75.905H50c3.256 0 5.904-2.649 5.904-5.905S53.256 64.095 50 64.095h-1.5V51.5h-9.722c-.716 4.199-4.38 7.405-8.778 7.405z" style="fill: rgba(65, 84, 241, 0.5);"></path></g></g></g></g><style id="breath-cf3e196f-8d1c-4fbb-bf05-2e98009805a9" data-anikit="">@keyframes breath-cf3e196f-8d1c-4fbb-bf05-2e98009805a9
{
  0% {
    animation-timing-function: cubic-bezier(0.9647,0.2413,-0.0705,0.7911);
    transform: scale(0.9099999999999999);
  }
  51% {
    animation-timing-function: cubic-bezier(0.9226,0.2631,-0.0308,0.7628);
    transform: scale(1.02994);
  }
  100% {
    transform: scale(0.9099999999999999);
  }
}</style><!-- [ldio] generated by https://loading.io/ --></svg>