<?xml version="1.0" encoding="iso-8859-1"?>
<!-- Generator: Adobe Illustrator 22.1.0, SVG Export Plug-In . SVG Version: 6.00 Build 0)  -->
<svg version="1.1" id="Layer_1" xmlns="http://www.w3.org/2000/svg" xmlns:xlink="http://www.w3.org/1999/xlink" x="0px" y="0px"
	 viewBox="0 0 26.051 26.052" style="enable-background:new 0 0 26.051 26.052;" xml:space="preserve">
<g id="puzzle-7">
	<path d="M21.885,7.157c1.814-0.747,4.164-2.027,1.601-4.592c-2.563-2.563-3.844-0.214-4.591,1.603
		c-0.746,1.813-2.028,0.745-3.096-0.323C14.73,2.777,13.021,0,13.021,0s-1.707,2.774-2.775,3.843C9.18,4.91,7.896,5.979,7.149,4.162
		C6.401,2.348,5.12-0.003,2.559,2.56C-0.003,5.12,2.347,6.402,4.161,7.151C5.977,7.898,4.91,9.18,3.842,10.247
		C2.774,11.314,0,13.021,0,13.021l6.515,6.515l6.515,6.516c0,0,2.775-1.708,3.843-2.775s2.135-2.348,0.319-3.096
		c-1.815-0.747-4.164-2.029-1.602-4.591c2.562-2.561,3.844-0.214,4.591,1.602c0.748,1.816,2.028,0.748,3.096-0.319
		s2.775-3.843,2.775-3.843s-2.776-1.709-3.844-2.777C21.14,9.186,20.07,7.904,21.885,7.157z M22.568,16.166
		c-0.827,0.827-1.165,0.98-1.287,1.003c0-0.024-0.08-0.122-0.177-0.357c-0.412-1.002-1.378-3.351-3.445-3.351
		c-0.912,0-1.82,0.465-2.777,1.422c-1.121,1.121-1.583,2.223-1.373,3.272c0.308,1.537,1.926,2.384,3.302,2.95
		c0.308,0.127,0.381,0.225,0.382,0.226c-0.027,0.024-0.136,0.347-1.027,1.238c-0.628,0.628-2.046,1.596-2.994,2.209L1.586,13.193
		c0.939-0.618,2.262-1.537,2.963-2.239c0.634-0.633,1.814-1.811,1.557-3.095c-0.144-0.716-0.67-1.266-1.564-1.633
		C3.237,5.688,2.53,5.186,2.439,4.732C2.372,4.393,2.673,3.859,3.266,3.267C3.993,2.539,4.432,2.43,4.628,2.43
		c0.482,0,1.019,0.712,1.597,2.113c0.544,1.321,1.39,1.6,2.004,1.6c1.046,0,1.955-0.822,2.725-1.593
		c0.64-0.64,1.46-1.795,2.068-2.705c0.609,0.911,1.431,2.068,2.07,2.707c0.771,0.772,1.68,1.594,2.727,1.594
		c0.613,0,1.458-0.277,2.001-1.597c0.576-1.402,1.113-2.113,1.595-2.113c0.196,0,0.636,0.108,1.364,0.837
		c0.594,0.594,0.895,1.129,0.827,1.469c-0.091,0.452-0.798,0.954-2.102,1.491c-0.893,0.368-1.418,0.917-1.561,1.633
		c-0.256,1.281,0.924,2.461,1.558,3.095c0.755,0.756,2.229,1.763,3.17,2.377C24.056,14.277,23.161,15.573,22.568,16.166z"/>
</g>
</svg>
